HIERARCHY
ROOT Hips
{
    OFFSET   0.000000   0.000000   0.000000
    CHANNELS 6 Xposition Yposition Zposition Zrotation Xrotation Yrotation
    JOINT Chest
    {
        OFFSET   0.000000   8.007230   0.000000
        CHANNELS 3 Zrotation Xrotation Yrotation
        JOINT Chest2
        {
            OFFSET   0.000000  22.077100   0.000000
            CHANNELS 3 Zrotation Xrotation Yrotation
            JOINT Neck
            {
                OFFSET   0.000000  23.254700   0.000000
                CHANNELS 3 Zrotation Xrotation Yrotation
                JOINT Head
                {
                    OFFSET   0.000010  14.370000   1.956610
                    CHANNELS 3 Zrotation Xrotation Yrotation
                    End Site
                    {
                        OFFSET   0.000000  19.566000   0.000000
                    }
                }
            }
            JOINT LeftCollar
            {
                OFFSET   3.911900  19.017000  -0.467063
                CHANNELS 3 Zrotation Xrotation Yrotation
                JOINT LeftShoulder
                {
                    OFFSET  10.383700   0.000000   0.000000
                    CHANNELS 3 Zrotation Xrotation Yrotation
                    JOINT LeftElbow
                    {
                        OFFSET  26.662100   0.001671   0.000522
                        CHANNELS 3 Zrotation Xrotation Yrotation
                        JOINT LeftWrist
                        {
                            OFFSET  28.869000   0.000037  -0.000114
                            CHANNELS 3 Zrotation Xrotation Yrotation
                            JOINT LeftFinger0
                            {
                                OFFSET   2.044650  -2.323450   3.252850
                                CHANNELS 3 Zrotation Xrotation Yrotation
                                JOINT LeftFinger01
                                {
                                    OFFSET   3.088140   0.000000   0.000000
                                    CHANNELS 3 Zrotation Xrotation Yrotation
                                    JOINT LeftFinger02
                                    {
                                        OFFSET   2.639460   0.000000   0.000000
                                        CHANNELS 3 Zrotation Xrotation Yrotation
                                        End Site
                                        {
                                            OFFSET   2.582190   0.000000   0.000000
                                        }
                                    }
                                }
                            }
                            JOINT LeftFinger1
                            {
                                OFFSET   8.364480   0.000000   3.252850
                                CHANNELS 3 Zrotation Xrotation Yrotation
                                JOINT LeftFinger11
                                {
                                    OFFSET   4.646930   0.000000   0.000000
                                    CHANNELS 3 Zrotation Xrotation Yrotation
                                    JOINT LeftFinger12
                                    {
                                        OFFSET   2.323470   0.000000   0.000000
                                        CHANNELS 3 Zrotation Xrotation Yrotation
                                        End Site
                                        {
                                            OFFSET   2.273050   0.000000   0.000000
                                        }
                                    }
                                }
                            }
                            JOINT LeftFinger2
                            {
                                OFFSET   8.364490   0.000016   1.078090
                                CHANNELS 3 Zrotation Xrotation Yrotation
                                JOINT LeftFinger21
                                {
                                    OFFSET   5.111620   0.000000   0.000000
                                    CHANNELS 3 Zrotation Xrotation Yrotation
                                    JOINT LeftFinger22
                                    {
                                        OFFSET   2.788150   0.000013   0.000000
                                        CHANNELS 3 Zrotation Xrotation Yrotation
                                        End Site
                                        {
                                            OFFSET   2.727660   0.000000   0.000000
                                        }
                                    }
                                }
                            }
                            JOINT LeftFinger3
                            {
                                OFFSET   7.899780   0.000016  -1.078090
                                CHANNELS 3 Zrotation Xrotation Yrotation
                                JOINT LeftFinger31
                                {
                                    OFFSET   4.646930   0.000000   0.000000
                                    CHANNELS 3 Zrotation Xrotation Yrotation
                                    JOINT LeftFinger32
                                    {
                                        OFFSET   2.323470   0.000000   0.000000
                                        CHANNELS 3 Zrotation Xrotation Yrotation
                                        End Site
                                        {
                                            OFFSET   2.273050   0.000000   0.000000
                                        }
                                    }
                                }
                            }
                            JOINT LeftFinger4
                            {
                                OFFSET   7.435080   0.000000  -3.252850
                                CHANNELS 3 Zrotation Xrotation Yrotation
                                JOINT LeftFinger41
                                {
                                    OFFSET   3.717550   0.000000   0.000000
                                    CHANNELS 3 Zrotation Xrotation Yrotation
                                    JOINT LeftFinger42
                                    {
                                        OFFSET   1.858760   0.000000   0.000000
                                        CHANNELS 3 Zrotation Xrotation Yrotation
                                        End Site
                                        {
                                            OFFSET   1.818440   0.000000   0.000000
                                        }
                                    }
                                }
                            }
                        }
                    }
                }
            }
            JOINT RightCollar
            {
                OFFSET  -3.911900  19.017000  -0.467064
                CHANNELS 3 Zrotation Xrotation Yrotation
                JOINT RightShoulder
                {
                    OFFSET -10.383700   0.000000   0.000000
                    CHANNELS 3 Zrotation Xrotation Yrotation
                    JOINT RightElbow
                    {
                        OFFSET -26.662100   0.001633   0.000260
                        CHANNELS 3 Zrotation Xrotation Yrotation
                        JOINT RightWrist
                        {
                            OFFSET -28.869000  -0.000045  -0.000080
                            CHANNELS 3 Zrotation Xrotation Yrotation
                            JOINT RightFinger0
                            {
                                OFFSET  -2.044660  -2.323490   3.252850
                                CHANNELS 3 Zrotation Xrotation Yrotation
                                JOINT RightFinger01
                                {
                                    OFFSET  -3.088140   0.000000   0.000000
                                    CHANNELS 3 Zrotation Xrotation Yrotation
                                    JOINT RightFinger02
                                    {
                                        OFFSET  -2.639450   0.000000   0.000000
                                        CHANNELS 3 Zrotation Xrotation Yrotation
                                        End Site
                                        {
                                            OFFSET  -2.582190   0.000000   0.000000
                                        }
                                    }
                                }
                            }
                            JOINT RightFinger1
                            {
                                OFFSET  -8.364480   0.000000   3.252850
                                CHANNELS 3 Zrotation Xrotation Yrotation
                                JOINT RightFinger11
                                {
                                    OFFSET  -4.646920   0.000000   0.000000
                                    CHANNELS 3 Zrotation Xrotation Yrotation
                                    JOINT RightFinger12
                                    {
                                        OFFSET  -2.323470   0.000000   0.000000
                                        CHANNELS 3 Zrotation Xrotation Yrotation
                                        End Site
                                        {
                                            OFFSET  -2.273050   0.000000   0.000000
                                        }
                                    }
                                }
                            }
                            JOINT RightFinger2
                            {
                                OFFSET  -8.364480   0.000000   1.078090
                                CHANNELS 3 Zrotation Xrotation Yrotation
                                JOINT RightFinger21
                                {
                                    OFFSET  -5.111610   0.000000   0.000000
                                    CHANNELS 3 Zrotation Xrotation Yrotation
                                    JOINT RightFinger22
                                    {
                                        OFFSET  -2.788160   0.000000   0.000000
                                        CHANNELS 3 Zrotation Xrotation Yrotation
                                        End Site
                                        {
                                            OFFSET  -2.727660   0.000000   0.000000
                                        }
                                    }
                                }
                            }
                            JOINT RightFinger3
                            {
                                OFFSET  -7.899780   0.000000  -1.078090
                                CHANNELS 3 Zrotation Xrotation Yrotation
                                JOINT RightFinger31
                                {
                                    OFFSET  -4.646930   0.000000   0.000000
                                    CHANNELS 3 Zrotation Xrotation Yrotation
                                    JOINT RightFinger32
                                    {
                                        OFFSET  -2.323470   0.000000   0.000000
                                        CHANNELS 3 Zrotation Xrotation Yrotation
                                        End Site
                                        {
                                            OFFSET  -2.273050   0.000000   0.000000
                                        }
                                    }
                                }
                            }
                            JOINT RightFinger4
                            {
                                OFFSET  -7.435090   0.000000  -3.252850
                                CHANNELS 3 Zrotation Xrotation Yrotation
                                JOINT RightFinger41
                                {
                                    OFFSET  -3.717550   0.000000   0.000000
                                    CHANNELS 3 Zrotation Xrotation Yrotation
                                    JOINT RightFinger42
                                    {
                                        OFFSET  -1.858760   0.000000   0.000000
                                        CHANNELS 3 Zrotation Xrotation Yrotation
                                        End Site
                                        {
                                            OFFSET  -1.818440   0.000000   0.000000
                                        }
                                    }
                                }
                            }
                        }
                    }
                }
            }
        }
    }
    JOINT LeftHip
    {
        OFFSET   9.782990   0.000000   0.000000
        CHANNELS 3 Zrotation Xrotation Yrotation
        JOINT LeftKnee
        {
            OFFSET  -0.000063 -41.789100   0.001657
            CHANNELS 3 Zrotation Xrotation Yrotation
            JOINT LeftAnkle
            {
                OFFSET   0.000078 -41.133200  -0.000113
                CHANNELS 3 Zrotation Xrotation Yrotation
                JOINT LeftToe
                {
                    OFFSET   0.000000  -6.358970  14.674500
                    CHANNELS 3 Zrotation Xrotation Yrotation
                    End Site
                    {
                        OFFSET   0.000000   0.000000   3.913200
                    }
                }
            }
        }
    }
    JOINT RightHip
    {
        OFFSET  -9.782990   0.000000   0.000000
        CHANNELS 3 Zrotation Xrotation Yrotation
        JOINT RightKnee
        {
            OFFSET   0.000053 -41.789200   0.000277
            CHANNELS 3 Zrotation Xrotation Yrotation
            JOINT RightAnkle
            {
                OFFSET   0.000030 -41.133200  -0.000150
                CHANNELS 3 Zrotation Xrotation Yrotation
                JOINT RightToe
                {
                    OFFSET   0.000000  -6.358960  14.674500
                    CHANNELS 3 Zrotation Xrotation Yrotation
                    End Site
                    {
                        OFFSET   0.000000   0.000000   3.913200
                    }
                }
            }
        }
    }
}
MOTION
Frames: 4
Frame Time:   0.016667
  1.963790  89.491300   3.175670   0.840638 -17.552400  12.033600  -1.092100   9.094170   4.754680  -3.013000  18.061200   9.876710   0.296373  -0.045072  -0.003166   0.495135  -0.089647  11.223800  -1.831010  -1.410300  -2.803900 -52.100600  12.115600 -69.983900  15.964700 -20.954500 -122.835000  48.292300  -3.849180 -11.972000  32.853500  24.736100 -61.284300 -33.344400  -0.609308  -0.196488 -11.672100  -0.289550  -0.135932 -15.592300   2.050000  -8.710810 -12.876500   0.028868  -0.037859  -9.013540   0.023495  -0.024046 -18.965300   1.973740  -6.681480 -19.072000   0.004867  -0.050371 -12.701900   0.009020  -0.033031 -13.107300   1.204970  -6.859310 -13.209200  -0.021660  -0.047859  -8.797250  -0.010383  -0.033388 -11.272400  -0.519563   1.373600 -16.837000   0.354204   0.134034 -11.213400   0.222432   0.119053   7.268380   0.111041   4.553260  75.803300  13.455000  -5.869840   2.693530  -9.778700  14.728700 -17.206100  -6.313850   0.683679 -35.054100  27.635400  60.715000  33.806000   0.002272  -0.001411  11.903100   0.001785  -0.001630  36.588900   9.367350  12.356000  30.775100   0.002522   0.002985  21.542600   0.001758   0.002386  29.465100   4.022890   7.073170  44.581400   0.002770   0.009659  29.691200   0.001854   0.006889  29.036000   1.597340   2.871850  43.701900  -0.000771  -0.000909  29.105500  -0.000511  -0.001154  41.044100  -1.386920  -1.594600  61.597000  -0.002234   0.005548  41.023600  -0.001426   0.003758   4.130160  18.554600   1.631400   1.160130   0.057230  -1.708330  -2.898130  -1.964470  -4.793100   0.000000   0.000000   0.000000   2.738630  21.561500  -2.963110  -0.169733   1.971360 -16.061000   0.853418  -6.623860  -5.675400   0.000000   0.000000   0.000000
  2.020890  89.499500   3.208300   1.018410 -18.116600  12.480200  -1.194470   9.275390   4.873660  -3.259700  18.409800  10.146200   0.398184   0.096126  -0.002936   0.654265   0.195744  10.531700  -1.630480  -1.929870  -3.231690 -46.947000  14.075700 -74.035700  17.454800 -22.073400 -120.293000  48.686000  -1.747580 -10.574000  34.239300  24.540500 -61.031200 -30.773200  -0.611604  -0.200306 -10.386500  -0.290433  -0.137956 -15.665500   2.124840  -8.768370 -12.941400   0.042392  -0.038980  -9.059010   0.032972  -0.024369 -17.183900   1.930780  -7.462640 -17.293100   0.014450  -0.037832 -11.517200   0.014399  -0.023365  -9.632300   0.834057  -7.741150  -9.688000  -0.023200  -0.021470  -6.452200  -0.013061  -0.015119  -8.509030  -0.574982   1.491590 -12.686200   0.357671   0.151694  -8.448950   0.224080   0.130152   7.219030   0.031781   4.427910  75.998600  14.284200  -5.934600   2.809130  -9.245560  14.916900 -16.935600  -5.805460   0.699806 -35.029600  27.568200  60.902000  33.725500   0.002368  -0.001481  11.862800   0.001830  -0.001705  36.509900   9.421240  12.459100  30.721600   0.002396   0.003002  21.505100   0.001673   0.002388  29.372400   4.074100   7.186550  44.452500   0.002642   0.009695  29.605300   0.001768   0.006914  28.920400   1.652850   2.985050  43.672000  -0.000821  -0.000882  29.085600  -0.000541  -0.001134  40.929700  -1.352580  -1.562270  61.424700  -0.002270   0.005509  40.908800  -0.001448   0.003743   4.164390  19.100200   1.543970   1.168450   0.001627  -1.949860  -2.889130  -1.877220  -4.880720  -0.000000   0.000000   0.000000   2.909040  22.097400  -3.087720  -0.280266   2.172070 -16.350900   0.916885  -6.739600  -5.742030   0.000000   0.000000   0.000000
  2.082950  89.495600   3.194970   1.177610 -18.576400  12.937000  -1.239620   9.468220   4.759830  -3.358440  18.795000   9.932690   0.262092   0.170045  -0.002698   0.421112   0.344519   9.993420  -1.543100  -2.415940  -3.346300 -41.526500  15.269200 -77.503400  17.890900 -24.705000 -118.010000  49.259300  -0.613293  -9.445320  37.357800  23.493700 -59.990200 -25.130100  -0.285399  -0.092211  -7.565060  -0.135275  -0.066618  -8.850450   1.404820 -11.676900  -7.359330   0.032360  -0.023452  -5.151550   0.024439  -0.013951 -11.761200   1.838370 -10.119100 -11.908700   0.006173  -0.019366  -7.931220   0.006482  -0.011448  -5.801150   0.835552 -10.356400  -5.867690  -0.023731   0.004888  -3.907880  -0.015725   0.002367  -5.476270  -0.028131  -2.597560  -8.153280   0.163273   0.094584  -5.430060   0.101452   0.075088   7.124800  -0.154856   4.575340  75.939900  15.202100  -5.763630   2.838430  -8.750280  15.017600 -16.573200  -4.955060   0.725615 -35.013900  27.317900  60.855400  33.534700   0.002450  -0.001534  11.767300   0.001882  -0.001776  36.277100   9.566500  12.754400  30.563000   0.002279   0.003016  21.394100   0.001591   0.002393  29.202900   4.189050   7.442090  44.219500   0.002510   0.009733  29.450200   0.001682   0.006926  28.818800   1.789250   3.246330  43.430200  -0.000862  -0.000862  28.924600  -0.000568  -0.001108  40.731400  -1.292330  -1.502330  61.124100  -0.002304   0.005460  40.708600  -0.001467   0.003731   4.196890  19.476300   1.551940   1.188880   0.056342  -2.250310  -2.882070  -1.847850  -5.007650   0.000000   0.000000   0.000000   3.094450  22.535000  -3.168790  -0.392676   2.409830 -16.687800   0.967105  -6.860720  -5.824950  -0.000000   0.000000   0.000000
  2.152630  89.490000   3.159110   1.304440 -18.928700  13.342400  -1.239300   9.629320   4.551300  -3.333730  19.123600   9.520110   0.125998   0.194390  -0.002463   0.207078   0.393154   9.515870  -1.524470  -2.700910  -3.363270 -38.781800  15.725100 -79.263000  18.103700 -26.415500 -116.381000  49.674700  -0.229781  -8.862670  39.468800  22.596300 -59.189400 -21.130700   0.040810   0.015874  -5.565320   0.019884   0.004718  -2.101380   0.694318 -15.070200  -1.777250   0.016493  -0.004974  -1.244090   0.011408  -0.003281  -7.780840   1.782680 -12.105900  -7.957010  -0.005451  -0.004759  -5.299380  -0.003456  -0.003749  -3.526230   0.882384 -12.272300  -3.603900  -0.023807   0.020552  -2.400190  -0.016711   0.012702  -3.529080   0.594045  -6.686990  -5.368730  -0.031126   0.019345  -3.575570  -0.021176   0.010036   7.010100  -0.288212   4.809480  75.725600  16.027300  -5.420500   2.811440  -8.344510  15.135100 -16.248800  -3.945490   0.831577 -34.967900  26.900200  60.563100  33.299100   0.002529  -0.001577  11.649500   0.001935  -0.001844  35.980700   9.742460  13.117700  30.359700   0.002161   0.003027  21.251800   0.001508   0.002399  29.019700   4.320560   7.732650  43.970700   0.002376   0.009769  29.284500   0.001596   0.006937  28.738000   1.945440   3.541860  43.069200  -0.000901  -0.000840  28.684100  -0.000595  -0.001081  40.531600  -1.231980  -1.441470  60.821400  -0.002337   0.005408  40.507000  -0.001487   0.003716   4.237570  19.744600   1.585520   1.204240   0.111033  -2.548980  -2.872430  -1.830940  -5.145470  -0.000000   0.000000   0.000000   3.258240  22.751700  -3.203720  -0.491587   2.681740 -16.998700   1.008140  -6.987140  -5.925200   0.000000   0.000000   0.000000
